<svg xmlns="http://www.w3.org/2000/svg" width="760" height="290" viewBox="0 0 760 290"><rect x="0" y="0" width="760" height="290" rx="0" fill="#ffffff" stroke="none" stroke-width="0"/><text x="14" y="26" font-family='system-ui, -apple-system, "Segoe UI", sans-serif' font-size="14" font-weight="700" fill="#1f2328" text-anchor="start">가족 드라마 — 세계 팔레트 대 씬이 실제로 쓴 강조색</text><text x="76" y="46" font-family='system-ui, -apple-system, "Segoe UI", sans-serif' font-size="10" font-weight="400" fill="#6e7781" text-anchor="start">세계 팔레트</text><text x="216" y="46" font-family='system-ui, -apple-system, "Segoe UI", sans-serif' font-size="10" font-weight="400" fill="#6e7781" text-anchor="start">씬 강조색 (장면 순서대로)</text><text x="14" y="82" font-family='system-ui, -apple-system, "Segoe UI", sans-serif' font-size="11" font-weight="600" fill="#1f2328" text-anchor="start">무배선 1회</text><rect x="89" y="70" width="16" height="16" rx="3" fill="#2D3748" stroke="#00000022" stroke-width="1"/><text x="97" y="97" font-family='system-ui, -apple-system, "Segoe UI", sans-serif' font-size="7" font-weight="400" fill="#6e7781" text-anchor="middle">#2D3748</text><rect x="131" y="70" width="16" height="16" rx="3" fill="#744210" stroke="#00000022" stroke-width="1"/><text x="139" y="97" font-family='system-ui, -apple-system, "Segoe UI", sans-serif' font-size="7" font-weight="400" fill="#6e7781" text-anchor="middle">#744210</text><rect x="173" y="70" width="16" height="16" rx="3" fill="#F6AD55" stroke="#00000022" stroke-width="1"/><text x="181" y="97" font-family='system-ui, -apple-system, "Segoe UI", sans-serif' font-size="7" font-weight="400" fill="#6e7781" text-anchor="middle">#F6AD55</text><line x1="209" y1="66" x2="209" y2="110" stroke="#e1e4e8" stroke-width="1"/><rect x="216" y="70" width="16" height="16" rx="3" fill="#2D3748" stroke="#00000022" stroke-width="1"/><rect x="235" y="70" width="16" height="16" rx="3" fill="#744210" stroke="#00000022" stroke-width="1"/><text x="233.5" y="97" font-family='system-ui, -apple-system, "Segoe UI", sans-serif' font-size="7" font-weight="400" fill="#6e7781" text-anchor="middle">씬1</text><rect x="265" y="70" width="16" height="16" rx="3" fill="#744210" stroke="#00000022" stroke-width="1"/><text x="273" y="97" font-family='system-ui, -apple-system, "Segoe UI", sans-serif' font-size="7" font-weight="400" fill="#6e7781" text-anchor="middle">씬2</text><rect x="295" y="70" width="16" height="16" rx="3" fill="#F6AD55" stroke="#00000022" stroke-width="1"/><rect x="314" y="70" width="16" height="16" rx="3" fill="#744210" stroke="#00000022" stroke-width="1"/><text x="312.5" y="97" font-family='system-ui, -apple-system, "Segoe UI", sans-serif' font-size="7" font-weight="400" fill="#6e7781" text-anchor="middle">씬3</text><rect x="344" y="70" width="16" height="16" rx="3" fill="#2D3748" stroke="#00000022" stroke-width="1"/><text x="352" y="97" font-family='system-ui, -apple-system, "Segoe UI", sans-serif' font-size="7" font-weight="400" fill="#6e7781" text-anchor="middle">씬4</text><rect x="374" y="70" width="16" height="16" rx="3" fill="#2D3748" stroke="#00000022" stroke-width="1"/><rect x="393" y="70" width="16" height="16" rx="3" fill="#744210" stroke="#00000022" stroke-width="1"/><text x="391.5" y="97" font-family='system-ui, -apple-system, "Segoe UI", sans-serif' font-size="7" font-weight="400" fill="#6e7781" text-anchor="middle">씬5</text><rect x="423" y="70" width="16" height="16" rx="3" fill="#2D3748" stroke="#00000022" stroke-width="1"/><text x="431" y="97" font-family='system-ui, -apple-system, "Segoe UI", sans-serif' font-size="7" font-weight="400" fill="#6e7781" text-anchor="middle">씬6</text><rect x="453" y="70" width="16" height="16" rx="3" fill="#F6AD55" stroke="#00000022" stroke-width="1"/><text x="461" y="97" font-family='system-ui, -apple-system, "Segoe UI", sans-serif' font-size="7" font-weight="400" fill="#6e7781" text-anchor="middle">씬7</text><rect x="483" y="70" width="16" height="16" rx="3" fill="#F6AD55" stroke="#00000022" stroke-width="1"/><rect x="502" y="70" width="16" height="16" rx="3" fill="#744210" stroke="#00000022" stroke-width="1"/><text x="500.5" y="97" font-family='system-ui, -apple-system, "Segoe UI", sans-serif' font-size="7" font-weight="400" fill="#6e7781" text-anchor="middle">씬8</text><text x="14" y="134" font-family='system-ui, -apple-system, "Segoe UI", sans-serif' font-size="11" font-weight="600" fill="#1f2328" text-anchor="start">무배선 2회</text><rect x="89" y="122" width="16" height="16" rx="3" fill="#F5F5F5" stroke="#00000022" stroke-width="1"/><text x="97" y="149" font-family='system-ui, -apple-system, "Segoe UI", sans-serif' font-size="7" font-weight="400" fill="#6e7781" text-anchor="middle">#F5F5F5</text><rect x="131" y="122" width="16" height="16" rx="3" fill="#34495E" stroke="#00000022" stroke-width="1"/><text x="139" y="149" font-family='system-ui, -apple-system, "Segoe UI", sans-serif' font-size="7" font-weight="400" fill="#6e7781" text-anchor="middle">#34495E</text><rect x="173" y="122" width="16" height="16" rx="3" fill="#C0392B" stroke="#00000022" stroke-width="1"/><text x="181" y="149" font-family='system-ui, -apple-system, "Segoe UI", sans-serif' font-size="7" font-weight="400" fill="#6e7781" text-anchor="middle">#C0392B</text><line x1="209" y1="118" x2="209" y2="162" stroke="#e1e4e8" stroke-width="1"/><rect x="216" y="122" width="16" height="16" rx="3" fill="#F5F5F5" stroke="#00000022" stroke-width="1"/><rect x="235" y="122" width="16" height="16" rx="3" fill="#34495E" stroke="#00000022" stroke-width="1"/><text x="233.5" y="149" font-family='system-ui, -apple-system, "Segoe UI", sans-serif' font-size="7" font-weight="400" fill="#6e7781" text-anchor="middle">씬1</text><rect x="265" y="122" width="16" height="16" rx="3" fill="#34495E" stroke="#00000022" stroke-width="1"/><rect x="284" y="122" width="16" height="16" rx="3" fill="#C0392B" stroke="#00000022" stroke-width="1"/><text x="282.5" y="149" font-family='system-ui, -apple-system, "Segoe UI", sans-serif' font-size="7" font-weight="400" fill="#6e7781" text-anchor="middle">씬2</text><rect x="314" y="122" width="16" height="16" rx="3" fill="#34495E" stroke="#00000022" stroke-width="1"/><text x="322" y="149" font-family='system-ui, -apple-system, "Segoe UI", sans-serif' font-size="7" font-weight="400" fill="#6e7781" text-anchor="middle">씬3</text><rect x="344" y="122" width="16" height="16" rx="3" fill="#F5F5F5" stroke="#00000022" stroke-width="1"/><rect x="363" y="122" width="16" height="16" rx="3" fill="#34495E" stroke="#00000022" stroke-width="1"/><text x="361.5" y="149" font-family='system-ui, -apple-system, "Segoe UI", sans-serif' font-size="7" font-weight="400" fill="#6e7781" text-anchor="middle">씬4</text><rect x="393" y="122" width="16" height="16" rx="3" fill="#C0392B" stroke="#00000022" stroke-width="1"/><text x="401" y="149" font-family='system-ui, -apple-system, "Segoe UI", sans-serif' font-size="7" font-weight="400" fill="#6e7781" text-anchor="middle">씬5</text><rect x="423" y="122" width="16" height="16" rx="3" fill="#F5F5F5" stroke="#00000022" stroke-width="1"/><rect x="442" y="122" width="16" height="16" rx="3" fill="#C0392B" stroke="#00000022" stroke-width="1"/><text x="440.5" y="149" font-family='system-ui, -apple-system, "Segoe UI", sans-serif' font-size="7" font-weight="400" fill="#6e7781" text-anchor="middle">씬6</text><rect x="472" y="122" width="16" height="16" rx="3" fill="#F5F5F5" stroke="#00000022" stroke-width="1"/><rect x="491" y="122" width="16" height="16" rx="3" fill="#C0392B" stroke="#00000022" stroke-width="1"/><text x="489.5" y="149" font-family='system-ui, -apple-system, "Segoe UI", sans-serif' font-size="7" font-weight="400" fill="#6e7781" text-anchor="middle">씬7</text><text x="14" y="186" font-family='system-ui, -apple-system, "Segoe UI", sans-serif' font-size="11" font-weight="600" fill="#1f2328" text-anchor="start">배선 1회</text><rect x="89" y="174" width="16" height="16" rx="3" fill="#2C3E50" stroke="#00000022" stroke-width="1"/><text x="97" y="201" font-family='system-ui, -apple-system, "Segoe UI", sans-serif' font-size="7" font-weight="400" fill="#6e7781" text-anchor="middle">#2C3E50</text><rect x="131" y="174" width="16" height="16" rx="3" fill="#D7CCC8" stroke="#00000022" stroke-width="1"/><text x="139" y="201" font-family='system-ui, -apple-system, "Segoe UI", sans-serif' font-size="7" font-weight="400" fill="#6e7781" text-anchor="middle">#D7CCC8</text><rect x="173" y="174" width="16" height="16" rx="3" fill="#E64A19" stroke="#00000022" stroke-width="1"/><text x="181" y="201" font-family='system-ui, -apple-system, "Segoe UI", sans-serif' font-size="7" font-weight="400" fill="#6e7781" text-anchor="middle">#E64A19</text><line x1="209" y1="170" x2="209" y2="214" stroke="#e1e4e8" stroke-width="1"/><rect x="216" y="174" width="16" height="16" rx="3" fill="#2C3E50" stroke="#00000022" stroke-width="1"/><rect x="235" y="174" width="16" height="16" rx="3" fill="#D7CCC8" stroke="#00000022" stroke-width="1"/><text x="233.5" y="201" font-family='system-ui, -apple-system, "Segoe UI", sans-serif' font-size="7" font-weight="400" fill="#6e7781" text-anchor="middle">씬1</text><rect x="265" y="174" width="16" height="16" rx="3" fill="#D7CCC8" stroke="#00000022" stroke-width="1"/><rect x="284" y="174" width="16" height="16" rx="3" fill="#2C3E50" stroke="#00000022" stroke-width="1"/><text x="282.5" y="201" font-family='system-ui, -apple-system, "Segoe UI", sans-serif' font-size="7" font-weight="400" fill="#6e7781" text-anchor="middle">씬2</text><rect x="314" y="174" width="16" height="16" rx="3" fill="#E64A19" stroke="#00000022" stroke-width="1"/><rect x="333" y="174" width="16" height="16" rx="3" fill="#D7CCC8" stroke="#00000022" stroke-width="1"/><text x="331.5" y="201" font-family='system-ui, -apple-system, "Segoe UI", sans-serif' font-size="7" font-weight="400" fill="#6e7781" text-anchor="middle">씬3</text><rect x="363" y="174" width="16" height="16" rx="3" fill="#E64A19" stroke="#00000022" stroke-width="1"/><rect x="382" y="174" width="16" height="16" rx="3" fill="#D7CCC8" stroke="#00000022" stroke-width="1"/><text x="380.5" y="201" font-family='system-ui, -apple-system, "Segoe UI", sans-serif' font-size="7" font-weight="400" fill="#6e7781" text-anchor="middle">씬4</text><rect x="412" y="174" width="16" height="16" rx="3" fill="#2C3E50" stroke="#00000022" stroke-width="1"/><rect x="431" y="174" width="16" height="16" rx="3" fill="#D7CCC8" stroke="#00000022" stroke-width="1"/><text x="429.5" y="201" font-family='system-ui, -apple-system, "Segoe UI", sans-serif' font-size="7" font-weight="400" fill="#6e7781" text-anchor="middle">씬5</text><rect x="461" y="174" width="16" height="16" rx="3" fill="#2C3E50" stroke="#00000022" stroke-width="1"/><rect x="480" y="174" width="16" height="16" rx="3" fill="#E64A19" stroke="#00000022" stroke-width="1"/><text x="478.5" y="201" font-family='system-ui, -apple-system, "Segoe UI", sans-serif' font-size="7" font-weight="400" fill="#6e7781" text-anchor="middle">씬6</text><rect x="510" y="174" width="16" height="16" rx="3" fill="#D7CCC8" stroke="#00000022" stroke-width="1"/><rect x="529" y="174" width="16" height="16" rx="3" fill="#E64A19" stroke="#00000022" stroke-width="1"/><text x="527.5" y="201" font-family='system-ui, -apple-system, "Segoe UI", sans-serif' font-size="7" font-weight="400" fill="#6e7781" text-anchor="middle">씬7</text><rect x="559" y="174" width="16" height="16" rx="3" fill="#E64A19" stroke="#00000022" stroke-width="1"/><rect x="578" y="174" width="16" height="16" rx="3" fill="#D7CCC8" stroke="#00000022" stroke-width="1"/><text x="576.5" y="201" font-family='system-ui, -apple-system, "Segoe UI", sans-serif' font-size="7" font-weight="400" fill="#6e7781" text-anchor="middle">씬8</text><rect x="608" y="174" width="16" height="16" rx="3" fill="#E64A19" stroke="#00000022" stroke-width="1"/><rect x="627" y="174" width="16" height="16" rx="3" fill="#D7CCC8" stroke="#00000022" stroke-width="1"/><text x="625.5" y="201" font-family='system-ui, -apple-system, "Segoe UI", sans-serif' font-size="7" font-weight="400" fill="#6e7781" text-anchor="middle">씬9</text><text x="14" y="238" font-family='system-ui, -apple-system, "Segoe UI", sans-serif' font-size="11" font-weight="600" fill="#1f2328" text-anchor="start">배선 2회</text><rect x="89" y="226" width="16" height="16" rx="3" fill="#1A365D" stroke="#00000022" stroke-width="1"/><text x="97" y="253" font-family='system-ui, -apple-system, "Segoe UI", sans-serif' font-size="7" font-weight="400" fill="#6e7781" text-anchor="middle">#1A365D</text><rect x="131" y="226" width="16" height="16" rx="3" fill="#744210" stroke="#00000022" stroke-width="1"/><text x="139" y="253" font-family='system-ui, -apple-system, "Segoe UI", sans-serif' font-size="7" font-weight="400" fill="#6e7781" text-anchor="middle">#744210</text><rect x="173" y="226" width="16" height="16" rx="3" fill="#F6AD55" stroke="#00000022" stroke-width="1"/><text x="181" y="253" font-family='system-ui, -apple-system, "Segoe UI", sans-serif' font-size="7" font-weight="400" fill="#6e7781" text-anchor="middle">#F6AD55</text><line x1="209" y1="222" x2="209" y2="266" stroke="#e1e4e8" stroke-width="1"/><rect x="216" y="226" width="16" height="16" rx="3" fill="#1A365D" stroke="#00000022" stroke-width="1"/><rect x="235" y="226" width="16" height="16" rx="3" fill="#718096" stroke="#00000022" stroke-width="1"/><text x="233.5" y="253" font-family='system-ui, -apple-system, "Segoe UI", sans-serif' font-size="7" font-weight="400" fill="#6e7781" text-anchor="middle">씬1</text><rect x="265" y="226" width="16" height="16" rx="3" fill="#744210" stroke="#00000022" stroke-width="1"/><rect x="284" y="226" width="16" height="16" rx="3" fill="#F6AD55" stroke="#00000022" stroke-width="1"/><text x="282.5" y="253" font-family='system-ui, -apple-system, "Segoe UI", sans-serif' font-size="7" font-weight="400" fill="#6e7781" text-anchor="middle">씬2</text><rect x="314" y="226" width="16" height="16" rx="3" fill="#1A365D" stroke="#00000022" stroke-width="1"/><rect x="333" y="226" width="16" height="16" rx="3" fill="#744210" stroke="#00000022" stroke-width="1"/><text x="331.5" y="253" font-family='system-ui, -apple-system, "Segoe UI", sans-serif' font-size="7" font-weight="400" fill="#6e7781" text-anchor="middle">씬3</text><rect x="363" y="226" width="16" height="16" rx="3" fill="#F6AD55" stroke="#00000022" stroke-width="1"/><rect x="382" y="226" width="16" height="16" rx="3" fill="#744210" stroke="#00000022" stroke-width="1"/><text x="380.5" y="253" font-family='system-ui, -apple-system, "Segoe UI", sans-serif' font-size="7" font-weight="400" fill="#6e7781" text-anchor="middle">씬4</text><rect x="412" y="226" width="16" height="16" rx="3" fill="#F6AD55" stroke="#00000022" stroke-width="1"/><rect x="431" y="226" width="16" height="16" rx="3" fill="#EDF2F7" stroke="#00000022" stroke-width="1"/><text x="429.5" y="253" font-family='system-ui, -apple-system, "Segoe UI", sans-serif' font-size="7" font-weight="400" fill="#6e7781" text-anchor="middle">씬5</text></svg>