<svg xmlns="http://www.w3.org/2000/svg" width="760" height="290" viewBox="0 0 760 290"><rect x="0" y="0" width="760" height="290" rx="0" fill="#ffffff" stroke="none" stroke-width="0"/><text x="14" y="26" font-family='system-ui, -apple-system, "Segoe UI", sans-serif' font-size="14" font-weight="700" fill="#1f2328" text-anchor="start">기승전결 — 세계 팔레트 대 씬이 실제로 쓴 강조색</text><text x="76" y="46" font-family='system-ui, -apple-system, "Segoe UI", sans-serif' font-size="10" font-weight="400" fill="#6e7781" text-anchor="start">세계 팔레트</text><text x="216" y="46" font-family='system-ui, -apple-system, "Segoe UI", sans-serif' font-size="10" font-weight="400" fill="#6e7781" text-anchor="start">씬 강조색 (장면 순서대로)</text><text x="14" y="82" font-family='system-ui, -apple-system, "Segoe UI", sans-serif' font-size="11" font-weight="600" fill="#1f2328" text-anchor="start">무배선 1회</text><rect x="89" y="70" width="16" height="16" rx="3" fill="#708090" stroke="#00000022" stroke-width="1"/><text x="97" y="97" font-family='system-ui, -apple-system, "Segoe UI", sans-serif' font-size="7" font-weight="400" fill="#6e7781" text-anchor="middle">#708090</text><rect x="131" y="70" width="16" height="16" rx="3" fill="#4A5D23" stroke="#00000022" stroke-width="1"/><text x="139" y="97" font-family='system-ui, -apple-system, "Segoe UI", sans-serif' font-size="7" font-weight="400" fill="#6e7781" text-anchor="middle">#4A5D23</text><rect x="173" y="70" width="16" height="16" rx="3" fill="#FFD700" stroke="#00000022" stroke-width="1"/><text x="181" y="97" font-family='system-ui, -apple-system, "Segoe UI", sans-serif' font-size="7" font-weight="400" fill="#6e7781" text-anchor="middle">#FFD700</text><line x1="209" y1="66" x2="209" y2="110" stroke="#e1e4e8" stroke-width="1"/><rect x="216" y="70" width="16" height="16" rx="3" fill="#708090" stroke="#00000022" stroke-width="1"/><rect x="235" y="70" width="16" height="16" rx="3" fill="#4A5D23" stroke="#00000022" stroke-width="1"/><text x="233.5" y="97" font-family='system-ui, -apple-system, "Segoe UI", sans-serif' font-size="7" font-weight="400" fill="#6e7781" text-anchor="middle">씬1</text><rect x="265" y="70" width="16" height="16" rx="3" fill="#4A5D23" stroke="#00000022" stroke-width="1"/><text x="273" y="97" font-family='system-ui, -apple-system, "Segoe UI", sans-serif' font-size="7" font-weight="400" fill="#6e7781" text-anchor="middle">씬2</text><rect x="295" y="70" width="16" height="16" rx="3" fill="#FFD700" stroke="#00000022" stroke-width="1"/><text x="303" y="97" font-family='system-ui, -apple-system, "Segoe UI", sans-serif' font-size="7" font-weight="400" fill="#6e7781" text-anchor="middle">씬3</text><rect x="325" y="70" width="16" height="16" rx="3" fill="#FFD700" stroke="#00000022" stroke-width="1"/><rect x="344" y="70" width="16" height="16" rx="3" fill="#708090" stroke="#00000022" stroke-width="1"/><text x="342.5" y="97" font-family='system-ui, -apple-system, "Segoe UI", sans-serif' font-size="7" font-weight="400" fill="#6e7781" text-anchor="middle">씬4</text><text x="14" y="134" font-family='system-ui, -apple-system, "Segoe UI", sans-serif' font-size="11" font-weight="600" fill="#1f2328" text-anchor="start">무배선 2회</text><rect x="89" y="122" width="16" height="16" rx="3" fill="#EADDCA" stroke="#00000022" stroke-width="1"/><text x="97" y="149" font-family='system-ui, -apple-system, "Segoe UI", sans-serif' font-size="7" font-weight="400" fill="#6e7781" text-anchor="middle">#EADDCA</text><rect x="131" y="122" width="16" height="16" rx="3" fill="#8B9A46" stroke="#00000022" stroke-width="1"/><text x="139" y="149" font-family='system-ui, -apple-system, "Segoe UI", sans-serif' font-size="7" font-weight="400" fill="#6e7781" text-anchor="middle">#8B9A46</text><rect x="173" y="122" width="16" height="16" rx="3" fill="#40E0D0" stroke="#00000022" stroke-width="1"/><text x="181" y="149" font-family='system-ui, -apple-system, "Segoe UI", sans-serif' font-size="7" font-weight="400" fill="#6e7781" text-anchor="middle">#40E0D0</text><line x1="209" y1="118" x2="209" y2="162" stroke="#e1e4e8" stroke-width="1"/><rect x="216" y="122" width="16" height="16" rx="3" fill="#EADDCA" stroke="#00000022" stroke-width="1"/><rect x="235" y="122" width="16" height="16" rx="3" fill="#8B9A46" stroke="#00000022" stroke-width="1"/><text x="233.5" y="149" font-family='system-ui, -apple-system, "Segoe UI", sans-serif' font-size="7" font-weight="400" fill="#6e7781" text-anchor="middle">씬1</text><rect x="265" y="122" width="16" height="16" rx="3" fill="#EADDCA" stroke="#00000022" stroke-width="1"/><rect x="284" y="122" width="16" height="16" rx="3" fill="#8B9A46" stroke="#00000022" stroke-width="1"/><text x="282.5" y="149" font-family='system-ui, -apple-system, "Segoe UI", sans-serif' font-size="7" font-weight="400" fill="#6e7781" text-anchor="middle">씬2</text><rect x="314" y="122" width="16" height="16" rx="3" fill="#40E0D0" stroke="#00000022" stroke-width="1"/><rect x="333" y="122" width="16" height="16" rx="3" fill="#EADDCA" stroke="#00000022" stroke-width="1"/><text x="331.5" y="149" font-family='system-ui, -apple-system, "Segoe UI", sans-serif' font-size="7" font-weight="400" fill="#6e7781" text-anchor="middle">씬3</text><rect x="363" y="122" width="16" height="16" rx="3" fill="#40E0D0" stroke="#00000022" stroke-width="1"/><rect x="382" y="122" width="16" height="16" rx="3" fill="#8B9A46" stroke="#00000022" stroke-width="1"/><text x="380.5" y="149" font-family='system-ui, -apple-system, "Segoe UI", sans-serif' font-size="7" font-weight="400" fill="#6e7781" text-anchor="middle">씬4</text><text x="14" y="186" font-family='system-ui, -apple-system, "Segoe UI", sans-serif' font-size="11" font-weight="600" fill="#1f2328" text-anchor="start">배선 1회</text><rect x="89" y="174" width="16" height="16" rx="3" fill="#9CAF88" stroke="#00000022" stroke-width="1"/><text x="97" y="201" font-family='system-ui, -apple-system, "Segoe UI", sans-serif' font-size="7" font-weight="400" fill="#6e7781" text-anchor="middle">#9CAF88</text><rect x="131" y="174" width="16" height="16" rx="3" fill="#CD5C5C" stroke="#00000022" stroke-width="1"/><text x="139" y="201" font-family='system-ui, -apple-system, "Segoe UI", sans-serif' font-size="7" font-weight="400" fill="#6e7781" text-anchor="middle">#CD5C5C</text><rect x="173" y="174" width="16" height="16" rx="3" fill="#FFD700" stroke="#00000022" stroke-width="1"/><text x="181" y="201" font-family='system-ui, -apple-system, "Segoe UI", sans-serif' font-size="7" font-weight="400" fill="#6e7781" text-anchor="middle">#FFD700</text><line x1="209" y1="170" x2="209" y2="214" stroke="#e1e4e8" stroke-width="1"/><rect x="216" y="174" width="16" height="16" rx="3" fill="#9CAF88" stroke="#00000022" stroke-width="1"/><text x="224" y="201" font-family='system-ui, -apple-system, "Segoe UI", sans-serif' font-size="7" font-weight="400" fill="#6e7781" text-anchor="middle">씬1</text><rect x="246" y="174" width="16" height="16" rx="3" fill="#9CAF88" stroke="#00000022" stroke-width="1"/><rect x="265" y="174" width="16" height="16" rx="3" fill="#CD5C5C" stroke="#00000022" stroke-width="1"/><text x="263.5" y="201" font-family='system-ui, -apple-system, "Segoe UI", sans-serif' font-size="7" font-weight="400" fill="#6e7781" text-anchor="middle">씬2</text><rect x="295" y="174" width="16" height="16" rx="3" fill="#FFD700" stroke="#00000022" stroke-width="1"/><text x="303" y="201" font-family='system-ui, -apple-system, "Segoe UI", sans-serif' font-size="7" font-weight="400" fill="#6e7781" text-anchor="middle">씬3</text><rect x="325" y="174" width="16" height="16" rx="3" fill="#FFD700" stroke="#00000022" stroke-width="1"/><rect x="344" y="174" width="16" height="16" rx="3" fill="#9CAF88" stroke="#00000022" stroke-width="1"/><text x="342.5" y="201" font-family='system-ui, -apple-system, "Segoe UI", sans-serif' font-size="7" font-weight="400" fill="#6e7781" text-anchor="middle">씬4</text><text x="14" y="238" font-family='system-ui, -apple-system, "Segoe UI", sans-serif' font-size="11" font-weight="600" fill="#1f2328" text-anchor="start">배선 2회</text><rect x="89" y="226" width="16" height="16" rx="3" fill="#5D6D7E" stroke="#00000022" stroke-width="1"/><text x="97" y="253" font-family='system-ui, -apple-system, "Segoe UI", sans-serif' font-size="7" font-weight="400" fill="#6e7781" text-anchor="middle">#5D6D7E</text><rect x="131" y="226" width="16" height="16" rx="3" fill="#8B7355" stroke="#00000022" stroke-width="1"/><text x="139" y="253" font-family='system-ui, -apple-system, "Segoe UI", sans-serif' font-size="7" font-weight="400" fill="#6e7781" text-anchor="middle">#8B7355</text><rect x="173" y="226" width="16" height="16" rx="3" fill="#FFD700" stroke="#00000022" stroke-width="1"/><text x="181" y="253" font-family='system-ui, -apple-system, "Segoe UI", sans-serif' font-size="7" font-weight="400" fill="#6e7781" text-anchor="middle">#FFD700</text><line x1="209" y1="222" x2="209" y2="266" stroke="#e1e4e8" stroke-width="1"/><rect x="216" y="226" width="16" height="16" rx="3" fill="#5D6D7E" stroke="#00000022" stroke-width="1"/><rect x="235" y="226" width="16" height="16" rx="3" fill="#8B7355" stroke="#00000022" stroke-width="1"/><text x="233.5" y="253" font-family='system-ui, -apple-system, "Segoe UI", sans-serif' font-size="7" font-weight="400" fill="#6e7781" text-anchor="middle">씬1</text><rect x="265" y="226" width="16" height="16" rx="3" fill="#8B7355" stroke="#00000022" stroke-width="1"/><rect x="284" y="226" width="16" height="16" rx="3" fill="#5D6D7E" stroke="#00000022" stroke-width="1"/><text x="282.5" y="253" font-family='system-ui, -apple-system, "Segoe UI", sans-serif' font-size="7" font-weight="400" fill="#6e7781" text-anchor="middle">씬2</text><rect x="314" y="226" width="16" height="16" rx="3" fill="#FFD700" stroke="#00000022" stroke-width="1"/><rect x="333" y="226" width="16" height="16" rx="3" fill="#8B7355" stroke="#00000022" stroke-width="1"/><text x="331.5" y="253" font-family='system-ui, -apple-system, "Segoe UI", sans-serif' font-size="7" font-weight="400" fill="#6e7781" text-anchor="middle">씬3</text><rect x="363" y="226" width="16" height="16" rx="3" fill="#FFD700" stroke="#00000022" stroke-width="1"/><rect x="382" y="226" width="16" height="16" rx="3" fill="#8B7355" stroke="#00000022" stroke-width="1"/><text x="380.5" y="253" font-family='system-ui, -apple-system, "Segoe UI", sans-serif' font-size="7" font-weight="400" fill="#6e7781" text-anchor="middle">씬4</text></svg>