<svg xmlns="http://www.w3.org/2000/svg" width="720" height="320" viewBox="0 0 720 320"><rect x="0" y="0" width="720" height="320" rx="0" fill="#ffffff" stroke="none" stroke-width="0"/><text x="60" y="24" font-family='system-ui, -apple-system, "Segoe UI", sans-serif' font-size="14" font-weight="700" fill="#1f2328" text-anchor="start">기승전결 — 장면 순서에 따른 조명 색온도(무배선 vs 배선 주입)</text><line x1="60" y1="270" x2="680" y2="270" stroke="#e1e4e8" stroke-width="1"/><text x="52" y="273" font-family='system-ui, -apple-system, "Segoe UI", sans-serif' font-size="9" font-weight="400" fill="#6e7781" text-anchor="end">2300K</text><line x1="60" y1="237.64705882352942" x2="680" y2="237.64705882352942" stroke="#e1e4e8" stroke-width="1"/><text x="52" y="240.64705882352942" font-family='system-ui, -apple-system, "Segoe UI", sans-serif' font-size="9" font-weight="400" fill="#6e7781" text-anchor="end">2800K</text><line x1="60" y1="205.29411764705884" x2="680" y2="205.29411764705884" stroke="#e1e4e8" stroke-width="1"/><text x="52" y="208.29411764705884" font-family='system-ui, -apple-system, "Segoe UI", sans-serif' font-size="9" font-weight="400" fill="#6e7781" text-anchor="end">3300K</text><line x1="60" y1="172.94117647058823" x2="680" y2="172.94117647058823" stroke="#e1e4e8" stroke-width="1"/><text x="52" y="175.94117647058823" font-family='system-ui, -apple-system, "Segoe UI", sans-serif' font-size="9" font-weight="400" fill="#6e7781" text-anchor="end">3800K</text><line x1="60" y1="140.58823529411765" x2="680" y2="140.58823529411765" stroke="#e1e4e8" stroke-width="1"/><text x="52" y="143.58823529411765" font-family='system-ui, -apple-system, "Segoe UI", sans-serif' font-size="9" font-weight="400" fill="#6e7781" text-anchor="end">4300K</text><line x1="60" y1="108.23529411764704" x2="680" y2="108.23529411764704" stroke="#e1e4e8" stroke-width="1"/><text x="52" y="111.23529411764704" font-family='system-ui, -apple-system, "Segoe UI", sans-serif' font-size="9" font-weight="400" fill="#6e7781" text-anchor="end">4800K</text><line x1="60" y1="75.88235294117646" x2="680" y2="75.88235294117646" stroke="#e1e4e8" stroke-width="1"/><text x="52" y="78.88235294117646" font-family='system-ui, -apple-system, "Segoe UI", sans-serif' font-size="9" font-weight="400" fill="#6e7781" text-anchor="end">5300K</text><text x="60" y="286" font-family='system-ui, -apple-system, "Segoe UI", sans-serif' font-size="9" font-weight="400" fill="#6e7781" text-anchor="middle">씬1</text><text x="266.66666666666663" y="286" font-family='system-ui, -apple-system, "Segoe UI", sans-serif' font-size="9" font-weight="400" fill="#6e7781" text-anchor="middle">씬2</text><text x="473.3333333333333" y="286" font-family='system-ui, -apple-system, "Segoe UI", sans-serif' font-size="9" font-weight="400" fill="#6e7781" text-anchor="middle">씬3</text><text x="680" y="286" font-family='system-ui, -apple-system, "Segoe UI", sans-serif' font-size="9" font-weight="400" fill="#6e7781" text-anchor="middle">씬4</text><text x="370" y="304" font-family='system-ui, -apple-system, "Segoe UI", sans-serif' font-size="10" font-weight="400" fill="#6e7781" text-anchor="middle">장면 순서</text><polyline points="60,160 266.66666666666663,143.8235294117647 473.3333333333333,169.70588235294116 680,218.23529411764707" fill="none" stroke="#2a78d6" stroke-width="2.5" stroke-dasharray="none" stroke-linejoin="round" stroke-linecap="round"/><circle cx="60" cy="160" r="3" fill="#2a78d6"/><circle cx="266.66666666666663" cy="143.8235294117647" r="3" fill="#2a78d6"/><circle cx="473.3333333333333" cy="169.70588235294116" r="3" fill="#2a78d6"/><circle cx="680" cy="218.23529411764707" r="3" fill="#2a78d6"/><polyline points="60,127.64705882352939 266.66666666666663,143.8235294117647 473.3333333333333,127.64705882352939 680,62.94117647058823" fill="none" stroke="#2a78d6" stroke-width="2.5" stroke-dasharray="5,4" stroke-linejoin="round" stroke-linecap="round"/><circle cx="60" cy="127.64705882352939" r="3" fill="#2a78d6"/><circle cx="266.66666666666663" cy="143.8235294117647" r="3" fill="#2a78d6"/><circle cx="473.3333333333333" cy="127.64705882352939" r="3" fill="#2a78d6"/><circle cx="680" cy="62.94117647058823" r="3" fill="#2a78d6"/><polyline points="60,75.88235294117646 266.66666666666663,143.8235294117647 473.3333333333333,160 680,224.7058823529412" fill="none" stroke="#eb6834" stroke-width="2.5" stroke-dasharray="none" stroke-linejoin="round" stroke-linecap="round"/><circle cx="60" cy="75.88235294117646" r="3" fill="#eb6834"/><circle cx="266.66666666666663" cy="143.8235294117647" r="3" fill="#eb6834"/><circle cx="473.3333333333333" cy="160" r="3" fill="#eb6834"/><circle cx="680" cy="224.7058823529412" r="3" fill="#eb6834"/><polyline points="60,72.64705882352939 266.66666666666663,111.47058823529412 473.3333333333333,176.1764705882353 680,240.88235294117646" fill="none" stroke="#eb6834" stroke-width="2.5" stroke-dasharray="5,4" stroke-linejoin="round" stroke-linecap="round"/><circle cx="60" cy="72.64705882352939" r="3" fill="#eb6834"/><circle cx="266.66666666666663" cy="111.47058823529412" r="3" fill="#eb6834"/><circle cx="473.3333333333333" cy="176.1764705882353" r="3" fill="#eb6834"/><circle cx="680" cy="240.88235294117646" r="3" fill="#eb6834"/><line x1="60" y1="310" x2="82" y2="310" stroke="#2a78d6" stroke-width="3"/><text x="88" y="314" font-family='system-ui, -apple-system, "Segoe UI", sans-serif' font-size="10" font-weight="400" fill="#1f2328" text-anchor="start">무배선 (실선=1회 · 점선=2회)</text><line x1="250" y1="310" x2="272" y2="310" stroke="#eb6834" stroke-width="3"/><text x="278" y="314" font-family='system-ui, -apple-system, "Segoe UI", sans-serif' font-size="10" font-weight="400" fill="#1f2328" text-anchor="start">배선 주입 (실선=1회 · 점선=2회)</text></svg>