<svg xmlns="http://www.w3.org/2000/svg" width="720" height="320" viewBox="0 0 720 320"><rect x="0" y="0" width="720" height="320" rx="0" fill="#ffffff" stroke="none" stroke-width="0"/><text x="60" y="24" font-family='system-ui, -apple-system, "Segoe UI", sans-serif' font-size="14" font-weight="700" fill="#1f2328" text-anchor="start">가족 드라마 — 장면 순서에 따른 조명 색온도(무배선 vs 배선 주입)</text><line x1="60" y1="270" x2="680" y2="270" stroke="#e1e4e8" stroke-width="1"/><text x="52" y="273" font-family='system-ui, -apple-system, "Segoe UI", sans-serif' font-size="9" font-weight="400" fill="#6e7781" text-anchor="end">2300K</text><line x1="60" y1="241.7948717948718" x2="680" y2="241.7948717948718" stroke="#e1e4e8" stroke-width="1"/><text x="52" y="244.7948717948718" font-family='system-ui, -apple-system, "Segoe UI", sans-serif' font-size="9" font-weight="400" fill="#6e7781" text-anchor="end">2800K</text><line x1="60" y1="213.5897435897436" x2="680" y2="213.5897435897436" stroke="#e1e4e8" stroke-width="1"/><text x="52" y="216.5897435897436" font-family='system-ui, -apple-system, "Segoe UI", sans-serif' font-size="9" font-weight="400" fill="#6e7781" text-anchor="end">3300K</text><line x1="60" y1="185.3846153846154" x2="680" y2="185.3846153846154" stroke="#e1e4e8" stroke-width="1"/><text x="52" y="188.3846153846154" font-family='system-ui, -apple-system, "Segoe UI", sans-serif' font-size="9" font-weight="400" fill="#6e7781" text-anchor="end">3800K</text><line x1="60" y1="157.17948717948718" x2="680" y2="157.17948717948718" stroke="#e1e4e8" stroke-width="1"/><text x="52" y="160.17948717948718" font-family='system-ui, -apple-system, "Segoe UI", sans-serif' font-size="9" font-weight="400" fill="#6e7781" text-anchor="end">4300K</text><line x1="60" y1="128.97435897435895" x2="680" y2="128.97435897435895" stroke="#e1e4e8" stroke-width="1"/><text x="52" y="131.97435897435895" font-family='system-ui, -apple-system, "Segoe UI", sans-serif' font-size="9" font-weight="400" fill="#6e7781" text-anchor="end">4800K</text><line x1="60" y1="100.76923076923077" x2="680" y2="100.76923076923077" stroke="#e1e4e8" stroke-width="1"/><text x="52" y="103.76923076923077" font-family='system-ui, -apple-system, "Segoe UI", sans-serif' font-size="9" font-weight="400" fill="#6e7781" text-anchor="end">5300K</text><line x1="60" y1="72.56410256410257" x2="680" y2="72.56410256410257" stroke="#e1e4e8" stroke-width="1"/><text x="52" y="75.56410256410257" font-family='system-ui, -apple-system, "Segoe UI", sans-serif' font-size="9" font-weight="400" fill="#6e7781" text-anchor="end">5800K</text><text x="60" y="286" font-family='system-ui, -apple-system, "Segoe UI", sans-serif' font-size="9" font-weight="400" fill="#6e7781" text-anchor="middle">씬1</text><text x="137.5" y="286" font-family='system-ui, -apple-system, "Segoe UI", sans-serif' font-size="9" font-weight="400" fill="#6e7781" text-anchor="middle">씬2</text><text x="215" y="286" font-family='system-ui, -apple-system, "Segoe UI", sans-serif' font-size="9" font-weight="400" fill="#6e7781" text-anchor="middle">씬3</text><text x="292.5" y="286" font-family='system-ui, -apple-system, "Segoe UI", sans-serif' font-size="9" font-weight="400" fill="#6e7781" text-anchor="middle">씬4</text><text x="370" y="286" font-family='system-ui, -apple-system, "Segoe UI", sans-serif' font-size="9" font-weight="400" fill="#6e7781" text-anchor="middle">씬5</text><text x="447.5" y="286" font-family='system-ui, -apple-system, "Segoe UI", sans-serif' font-size="9" font-weight="400" fill="#6e7781" text-anchor="middle">씬6</text><text x="525" y="286" font-family='system-ui, -apple-system, "Segoe UI", sans-serif' font-size="9" font-weight="400" fill="#6e7781" text-anchor="middle">씬7</text><text x="602.5" y="286" font-family='system-ui, -apple-system, "Segoe UI", sans-serif' font-size="9" font-weight="400" fill="#6e7781" text-anchor="middle">씬8</text><text x="680" y="286" font-family='system-ui, -apple-system, "Segoe UI", sans-serif' font-size="9" font-weight="400" fill="#6e7781" text-anchor="middle">씬9</text><text x="370" y="304" font-family='system-ui, -apple-system, "Segoe UI", sans-serif' font-size="10" font-weight="400" fill="#6e7781" text-anchor="middle">장면 순서</text><polyline points="60,202.30769230769232 137.5,219.23076923076923 215,224.87179487179486 292.5,230.5128205128205 370,230.5128205128205 447.5,236.15384615384616 525,241.7948717948718 602.5,244.6153846153846" fill="none" stroke="#2a78d6" stroke-width="2.5" stroke-dasharray="none" stroke-linejoin="round" stroke-linecap="round"/><circle cx="60" cy="202.30769230769232" r="3" fill="#2a78d6"/><circle cx="137.5" cy="219.23076923076923" r="3" fill="#2a78d6"/><circle cx="215" cy="224.87179487179486" r="3" fill="#2a78d6"/><circle cx="292.5" cy="230.5128205128205" r="3" fill="#2a78d6"/><circle cx="370" cy="230.5128205128205" r="3" fill="#2a78d6"/><circle cx="447.5" cy="236.15384615384616" r="3" fill="#2a78d6"/><circle cx="525" cy="241.7948717948718" r="3" fill="#2a78d6"/><circle cx="602.5" cy="244.6153846153846" r="3" fill="#2a78d6"/><polyline points="60,219.23076923076923 137.5,219.23076923076923 215,230.5128205128205 292.5,219.23076923076923 370,219.23076923076923 447.5,219.23076923076923 525,241.7948717948718" fill="none" stroke="#2a78d6" stroke-width="2.5" stroke-dasharray="5,4" stroke-linejoin="round" stroke-linecap="round"/><circle cx="60" cy="219.23076923076923" r="3" fill="#2a78d6"/><circle cx="137.5" cy="219.23076923076923" r="3" fill="#2a78d6"/><circle cx="215" cy="230.5128205128205" r="3" fill="#2a78d6"/><circle cx="292.5" cy="219.23076923076923" r="3" fill="#2a78d6"/><circle cx="370" cy="219.23076923076923" r="3" fill="#2a78d6"/><circle cx="447.5" cy="219.23076923076923" r="3" fill="#2a78d6"/><circle cx="525" cy="241.7948717948718" r="3" fill="#2a78d6"/><polyline points="60,83.84615384615384 137.5,131.7948717948718 215,188.2051282051282 292.5,210.76923076923077 370,219.23076923076923 447.5,224.87179487179486 525,236.15384615384616 602.5,244.6153846153846 680,247.43589743589743" fill="none" stroke="#eb6834" stroke-width="2.5" stroke-dasharray="none" stroke-linejoin="round" stroke-linecap="round"/><circle cx="60" cy="83.84615384615384" r="3" fill="#eb6834"/><circle cx="137.5" cy="131.7948717948718" r="3" fill="#eb6834"/><circle cx="215" cy="188.2051282051282" r="3" fill="#eb6834"/><circle cx="292.5" cy="210.76923076923077" r="3" fill="#eb6834"/><circle cx="370" cy="219.23076923076923" r="3" fill="#eb6834"/><circle cx="447.5" cy="224.87179487179486" r="3" fill="#eb6834"/><circle cx="525" cy="236.15384615384616" r="3" fill="#eb6834"/><circle cx="602.5" cy="244.6153846153846" r="3" fill="#eb6834"/><circle cx="680" cy="247.43589743589743" r="3" fill="#eb6834"/><polyline points="60,100.76923076923077 137.5,174.1025641025641 215,202.30769230769232 292.5,224.87179487179486 370,241.7948717948718" fill="none" stroke="#eb6834" stroke-width="2.5" stroke-dasharray="5,4" stroke-linejoin="round" stroke-linecap="round"/><circle cx="60" cy="100.76923076923077" r="3" fill="#eb6834"/><circle cx="137.5" cy="174.1025641025641" r="3" fill="#eb6834"/><circle cx="215" cy="202.30769230769232" r="3" fill="#eb6834"/><circle cx="292.5" cy="224.87179487179486" r="3" fill="#eb6834"/><circle cx="370" cy="241.7948717948718" r="3" fill="#eb6834"/><line x1="60" y1="310" x2="82" y2="310" stroke="#2a78d6" stroke-width="3"/><text x="88" y="314" font-family='system-ui, -apple-system, "Segoe UI", sans-serif' font-size="10" font-weight="400" fill="#1f2328" text-anchor="start">무배선 (실선=1회 · 점선=2회)</text><line x1="250" y1="310" x2="272" y2="310" stroke="#eb6834" stroke-width="3"/><text x="278" y="314" font-family='system-ui, -apple-system, "Segoe UI", sans-serif' font-size="10" font-weight="400" fill="#1f2328" text-anchor="start">배선 주입 (실선=1회 · 점선=2회)</text></svg>